<mxfile host="app.diagrams.net" modified="2023-05-01T00:23:13.872Z" agent="Mozilla/5.0 (Macintosh; Intel Mac OS X 10_15_7) AppleWebKit/537.36 (KHTML, like Gecko) Chrome/110.0.0.0 Safari/537.36" etag="MTNLVKe1F1RyXVgL9Tta" version="21.2.3" type="github">
  <diagram name="Page-1" id="Jq0GoEpo24Dp4JthHU2j">
    <mxGraphModel dx="1341" dy="805" grid="1" gridSize="10" guides="1" tooltips="1" connect="1" arrows="1" fold="1" page="1" pageScale="1" pageWidth="850" pageHeight="1100" background="#FFFFFF" math="0" shadow="0">
      <root>
        <mxCell id="0" />
        <mxCell id="1" parent="0" />
        <mxCell id="oiyVLpnFvnmQoLN_ZzgS-1" value="Sunny Spot Holidays" style="rounded=0;whiteSpace=wrap;html=1;fillColor=#f8cecc;strokeColor=#b85450;" vertex="1" parent="1">
          <mxGeometry x="260" y="160" width="400" height="40" as="geometry" />
        </mxCell>
        <mxCell id="oiyVLpnFvnmQoLN_ZzgS-2" value="Homepage" style="rounded=0;whiteSpace=wrap;html=1;fillColor=#ffe6cc;strokeColor=#d79b00;" vertex="1" parent="1">
          <mxGeometry x="410" y="210" width="100" height="30" as="geometry" />
        </mxCell>
        <mxCell id="oiyVLpnFvnmQoLN_ZzgS-3" value="Cabins" style="rounded=0;whiteSpace=wrap;html=1;fillColor=#f5f5f5;fontColor=#333333;strokeColor=#666666;" vertex="1" parent="1">
          <mxGeometry x="170" y="400" width="100" height="30" as="geometry" />
        </mxCell>
        <mxCell id="oiyVLpnFvnmQoLN_ZzgS-4" value="Camp Sites" style="rounded=0;whiteSpace=wrap;html=1;fillColor=#fff2cc;strokeColor=#d6b656;" vertex="1" parent="1">
          <mxGeometry x="170" y="460" width="100" height="30" as="geometry" />
        </mxCell>
        <mxCell id="oiyVLpnFvnmQoLN_ZzgS-5" value="About Us" style="rounded=0;whiteSpace=wrap;html=1;fillColor=#dae8fc;strokeColor=#6c8ebf;" vertex="1" parent="1">
          <mxGeometry x="290" y="340" width="100" height="30" as="geometry" />
        </mxCell>
        <mxCell id="oiyVLpnFvnmQoLN_ZzgS-6" value="Book" style="rounded=0;whiteSpace=wrap;html=1;fillColor=#fff2cc;strokeColor=#d6b656;" vertex="1" parent="1">
          <mxGeometry x="50" y="340" width="100" height="30" as="geometry" />
        </mxCell>
        <mxCell id="oiyVLpnFvnmQoLN_ZzgS-8" value="Experiences" style="rounded=0;whiteSpace=wrap;html=1;fillColor=#f8cecc;strokeColor=#b85450;" vertex="1" parent="1">
          <mxGeometry x="540" y="340" width="100" height="30" as="geometry" />
        </mxCell>
        <mxCell id="oiyVLpnFvnmQoLN_ZzgS-9" value="About Central Coast" style="rounded=0;whiteSpace=wrap;html=1;fillColor=#d5e8d4;strokeColor=#82b366;" vertex="1" parent="1">
          <mxGeometry x="660" y="340" width="100" height="30" as="geometry" />
        </mxCell>
        <mxCell id="oiyVLpnFvnmQoLN_ZzgS-10" value="Staff Login" style="rounded=0;whiteSpace=wrap;html=1;fillColor=#f5f5f5;fontColor=#333333;strokeColor=#666666;" vertex="1" parent="1">
          <mxGeometry x="780" y="340" width="100" height="30" as="geometry" />
        </mxCell>
        <mxCell id="oiyVLpnFvnmQoLN_ZzgS-11" value="Accomodation" style="rounded=0;whiteSpace=wrap;html=1;fillColor=#d5e8d4;strokeColor=#82b366;" vertex="1" parent="1">
          <mxGeometry x="170" y="340" width="100" height="30" as="geometry" />
        </mxCell>
        <mxCell id="oiyVLpnFvnmQoLN_ZzgS-12" value="Contact Us" style="rounded=0;whiteSpace=wrap;html=1;fillColor=#e1d5e7;strokeColor=#9673a6;" vertex="1" parent="1">
          <mxGeometry x="410" y="340" width="100" height="30" as="geometry" />
        </mxCell>
        <mxCell id="oiyVLpnFvnmQoLN_ZzgS-14" value="" style="edgeStyle=segmentEdgeStyle;endArrow=classic;html=1;curved=0;rounded=0;endSize=8;startSize=8;fillColor=#0050ef;strokeColor=#001DBC;" edge="1" parent="1">
          <mxGeometry width="50" height="50" relative="1" as="geometry">
            <mxPoint x="370" y="280" as="sourcePoint" />
            <mxPoint x="110" y="340" as="targetPoint" />
            <Array as="points">
              <mxPoint x="110" y="280" />
              <mxPoint x="110" y="330" />
            </Array>
          </mxGeometry>
        </mxCell>
        <mxCell id="oiyVLpnFvnmQoLN_ZzgS-15" value="" style="edgeStyle=segmentEdgeStyle;endArrow=classic;html=1;curved=0;rounded=0;endSize=8;startSize=8;fillColor=#0050ef;strokeColor=#001DBC;" edge="1" parent="1">
          <mxGeometry width="50" height="50" relative="1" as="geometry">
            <mxPoint x="360" y="280" as="sourcePoint" />
            <mxPoint x="710" y="340" as="targetPoint" />
            <Array as="points">
              <mxPoint x="710" y="280" />
              <mxPoint x="710" y="340" />
            </Array>
          </mxGeometry>
        </mxCell>
        <mxCell id="oiyVLpnFvnmQoLN_ZzgS-16" value="" style="endArrow=classic;html=1;rounded=0;fillColor=#0050ef;strokeColor=#001DBC;" edge="1" parent="1">
          <mxGeometry width="50" height="50" relative="1" as="geometry">
            <mxPoint x="339.5" y="280" as="sourcePoint" />
            <mxPoint x="339.5" y="340" as="targetPoint" />
          </mxGeometry>
        </mxCell>
        <mxCell id="oiyVLpnFvnmQoLN_ZzgS-17" value="" style="endArrow=classic;html=1;rounded=0;fillColor=#0050ef;strokeColor=#001DBC;" edge="1" parent="1">
          <mxGeometry width="50" height="50" relative="1" as="geometry">
            <mxPoint x="219.5" y="280" as="sourcePoint" />
            <mxPoint x="219.5" y="340" as="targetPoint" />
          </mxGeometry>
        </mxCell>
        <mxCell id="oiyVLpnFvnmQoLN_ZzgS-18" value="" style="endArrow=classic;html=1;rounded=0;fillColor=#0050ef;strokeColor=#001DBC;" edge="1" parent="1">
          <mxGeometry width="50" height="50" relative="1" as="geometry">
            <mxPoint x="459.5" y="280" as="sourcePoint" />
            <mxPoint x="459.5" y="340" as="targetPoint" />
          </mxGeometry>
        </mxCell>
        <mxCell id="oiyVLpnFvnmQoLN_ZzgS-20" value="" style="endArrow=classic;html=1;rounded=0;fillColor=#0050ef;strokeColor=#001DBC;" edge="1" parent="1">
          <mxGeometry width="50" height="50" relative="1" as="geometry">
            <mxPoint x="590" y="280" as="sourcePoint" />
            <mxPoint x="590" y="340" as="targetPoint" />
          </mxGeometry>
        </mxCell>
        <mxCell id="oiyVLpnFvnmQoLN_ZzgS-23" value="" style="endArrow=none;html=1;rounded=0;" edge="1" parent="1">
          <mxGeometry width="50" height="50" relative="1" as="geometry">
            <mxPoint x="459.5" y="280" as="sourcePoint" />
            <mxPoint x="459.5" y="240" as="targetPoint" />
          </mxGeometry>
        </mxCell>
        <mxCell id="oiyVLpnFvnmQoLN_ZzgS-24" value="" style="endArrow=none;html=1;rounded=0;" edge="1" parent="1">
          <mxGeometry width="50" height="50" relative="1" as="geometry">
            <mxPoint x="220" y="400" as="sourcePoint" />
            <mxPoint x="219.5" y="370" as="targetPoint" />
          </mxGeometry>
        </mxCell>
        <mxCell id="oiyVLpnFvnmQoLN_ZzgS-25" value="" style="endArrow=none;html=1;rounded=0;" edge="1" parent="1">
          <mxGeometry width="50" height="50" relative="1" as="geometry">
            <mxPoint x="220" y="460" as="sourcePoint" />
            <mxPoint x="219.5" y="430" as="targetPoint" />
          </mxGeometry>
        </mxCell>
      </root>
    </mxGraphModel>
  </diagram>
</mxfile>
